<svg width="40" height="40" viewBox="0 0 40 40" fill="none" xmlns="http://www.w3.org/2000/svg">
    <!-- Notebook/Book Shape - Open -->
    <path
        d="M8 12 L20 10 L32 12 L32 30 L20 28 L8 30 Z"
        fill="currentColor"
        opacity="0.9"
    />
    <!-- Book Pages - Left -->
    <path
        d="M8 12 L20 10 L20 28 L8 30 Z"
        fill="white"
        opacity="0.95"
        stroke="currentColor"
        strokeWidth="1"
    />
    <!-- Book Pages - Right -->
    <path
        d="M20 10 L32 12 L32 30 L20 28 Z"
        fill="white"
        opacity="0.95"
        stroke="currentColor"
        strokeWidth="1"
    />
    <!-- Center Binding -->
    <line x1="20" y1="10" x2="20" y2="28" stroke="currentColor" strokeWidth="2" />
    <!-- Page Lines - Left -->
    <line x1="10" y1="16" x2="18" y2="15.5" stroke="currentColor" strokeWidth="0.5" opacity="0.4" />
    <line x1="10" y1="19" x2="18" y2="18.5" stroke="currentColor" strokeWidth="0.5" opacity="0.4" />
    <line x1="10" y1="22" x2="18" y2="21.5" stroke="currentColor" strokeWidth="0.5" opacity="0.4" />
    <line x1="10" y1="25" x2="18" y2="24.5" stroke="currentColor" strokeWidth="0.5" opacity="0.4" />
    <!-- Page Lines - Right -->
    <line x1="22" y1="15.5" x2="30" y2="16" stroke="currentColor" strokeWidth="0.5" opacity="0.4" />
    <line x1="22" y1="18.5" x2="30" y2="19" stroke="currentColor" strokeWidth="0.5" opacity="0.4" />
    <line x1="22" y1="21.5" x2="30" y2="22" stroke="currentColor" strokeWidth="0.5" opacity="0.4" />
    <line x1="22" y1="24.5" x2="30" y2="25" stroke="currentColor" strokeWidth="0.5" opacity="0.4" />
</svg>
